<svg version="1.1" id="Layer_1" xmlns="http://www.w3.org/2000/svg" xmlns:xlink="http://www.w3.org/1999/xlink" x="0px" y="0px"
	 width="100%" viewBox="0 0 256 272" enable-background="new 0 0 256 272" xml:space="preserve">
<path fill="#000000" opacity="1.000000" stroke="none" 
	d="
M147.468658,273.000000 
	C145.374649,269.421051 145.490555,267.328125 150.459457,267.853546 
	C154.057144,268.233948 157.746109,267.769012 161.393539,267.654510 
	C163.652344,267.583618 165.185272,268.132172 164.146347,271.370544 
	C166.443497,268.121948 169.218948,267.355713 172.580185,267.619720 
	C184.408127,268.548798 196.262634,268.007904 207.691177,267.598358 
	C209.565994,269.445740 208.132217,270.843964 208.077240,272.612610 
	C187.979111,273.000000 167.958206,273.000000 147.468658,273.000000 
z"/>
<path fill="#000000" opacity="1.000000" stroke="none" 
	d="
M53.468658,273.000000 
	C54.728138,269.105316 57.716976,268.025024 61.444813,269.388306 
	C64.168839,270.384521 67.224136,271.670532 69.972313,269.545837 
	C71.803741,268.129913 74.445229,268.494659 75.482887,268.914307 
	C79.697464,270.618683 83.856644,269.655243 88.028679,269.817871 
	C89.639061,269.880646 92.146248,269.058685 91.161865,272.685913 
	C78.645775,273.000000 66.291542,273.000000 53.468658,273.000000 
z"/>
<path fill="#000000" opacity="1.000000" stroke="none" 
	d="
M93.468399,273.000000 
	C92.676826,271.515045 92.506714,270.065613 93.913033,268.976746 
	C98.457626,270.678955 103.017952,270.672272 107.575417,269.168579 
	C109.873787,268.410248 112.248940,269.747894 113.044632,272.695831 
	C106.645599,273.000000 100.291206,273.000000 93.468399,273.000000 
z"/>
<path fill="#000000" opacity="1.000000" stroke="none" 
	d="
M116.468536,273.000000 
	C116.543747,270.766602 117.809639,269.660950 120.259621,269.822510 
	C123.991768,270.068695 127.725090,270.299683 131.479813,269.793488 
	C133.629501,269.503662 135.885971,269.575714 136.892456,272.628418 
	C130.312347,273.000000 123.624710,273.000000 116.468536,273.000000 
z"/>
<path fill="#000000" opacity="1.000000" stroke="none" 
	d="
M85.994179,123.991470 
	C82.002907,124.147667 77.985077,124.073448 74.028389,124.529610 
	C70.577202,124.927483 69.622192,123.560188 69.657677,120.382141 
	C69.763649,110.889175 69.698051,101.394325 69.704590,91.900208 
	C69.706039,89.793533 69.850548,87.675659 72.716888,87.749115 
	C87.171860,88.119614 101.714432,86.272324 116.068649,88.898888 
	C124.490326,90.439896 131.493805,94.821373 137.244797,101.284782 
	C139.554672,103.880791 140.017288,106.190796 138.528290,109.368301 
	C136.013794,114.734154 133.870529,120.273979 131.352692,126.260017 
	C134.092621,125.859230 134.312210,123.989319 134.928497,122.664253 
	C139.632187,112.551163 144.379852,102.455116 148.843277,92.235588 
	C150.321136,88.851875 152.419403,88.014618 155.987793,87.501022 
	C166.031754,86.055420 171.273804,89.612114 175.221375,99.361748 
	C184.773071,122.952393 195.777634,145.954514 206.169495,169.205963 
	C206.762787,170.533493 207.738632,171.823654 206.967026,174.093277 
	C197.142273,174.363617 187.082779,174.952225 177.051605,173.768311 
	C174.016190,173.410065 171.727798,171.135162 170.048737,168.504990 
	C156.652344,147.519867 137.226990,136.122070 112.915878,132.275101 
	C95.707207,129.552017 78.488640,129.310669 61.199486,131.197113 
	C59.820190,131.347595 58.285378,131.893356 56.470314,130.332626 
	C66.053558,126.858513 75.724258,125.814964 86.045349,124.320847 
	C100.945290,125.161324 115.173958,123.731644 129.440079,126.597481 
	C127.856697,114.654724 121.619087,107.553894 111.301437,104.981667 
	C105.717941,103.589691 100.047485,104.332260 94.417755,104.223183 
	C87.190483,104.083160 87.328018,104.191422 87.136841,111.240524 
	C87.021385,115.498009 88.158730,119.907150 85.994179,123.991470 
M170.120316,130.261047 
	C167.035172,123.191666 163.950027,116.122276 160.309357,107.779953 
	C157.090408,115.184906 154.626633,121.311897 151.769806,127.249786 
	C150.095810,130.729141 151.187744,132.234024 154.449631,133.610550 
	C158.420563,135.286316 162.190781,137.453903 165.990524,139.514359 
	C169.472549,141.402527 172.463181,144.197403 176.960846,145.820786 
	C174.574707,140.366852 172.513474,135.655563 170.120316,130.261047 
z"/>
<path fill="#000000" opacity="1.000000" stroke="none" 
	d="
M69.696426,152.000290 
	C69.697380,146.341034 69.798546,141.178940 69.662659,136.023102 
	C69.580376,132.901352 70.893616,131.350510 73.964951,131.202667 
	C74.297287,131.186661 74.629059,131.156403 74.960625,131.127304 
	C87.125694,130.059769 87.025673,130.093002 87.250168,142.270477 
	C87.340630,147.177429 84.804253,154.442886 88.406593,156.494507 
	C94.235031,159.813904 102.029617,158.066147 108.902382,157.302277 
	C118.247986,156.263580 124.967903,151.027481 128.186020,142.082733 
	C129.558273,138.268555 131.404678,138.268875 134.582520,139.596497 
	C144.497635,143.738724 144.183350,143.528503 140.442749,153.384323 
	C134.902237,167.982605 122.911896,172.901688 109.108948,174.076721 
	C97.541199,175.061462 85.824631,174.230713 74.176003,174.372421 
	C70.555763,174.416458 69.608650,172.705109 69.676865,169.475586 
	C69.796333,163.819473 69.701683,158.158829 69.696426,152.000290 
z"/>
</svg>