<svg version="1.1" id="Layer_1" xmlns="http://www.w3.org/2000/svg" xmlns:xlink="http://www.w3.org/1999/xlink" x="0px" y="0px"
	 width="100%" viewBox="0 0 275 183" enable-background="new 0 0 275 183" xml:space="preserve">
<path fill="#060709" opacity="1.000000" stroke="none" 
	d="
M166.000000,184.000000 
	C110.666672,184.000000 55.833347,184.000000 1.000015,184.000000 
	C1.000010,123.000015 1.000010,62.000027 1.000005,1.000031 
	C92.666649,1.000021 184.333298,1.000021 275.999939,1.000010 
	C275.999969,61.999969 275.999969,122.999939 276.000000,183.999954 
	C239.500000,184.000000 203.000000,184.000000 166.000000,184.000000 
M130.102005,83.742363 
	C130.700684,83.174286 131.299362,82.606209 132.514923,82.325294 
	C134.136353,83.919136 135.757797,85.512970 137.379227,87.106812 
	C135.200516,81.588593 132.726120,76.564392 129.713959,71.886459 
	C126.167442,66.378670 121.005516,62.045963 114.602654,61.240730 
	C102.341309,59.698730 89.938225,59.283794 77.445694,58.390579 
	C77.445694,82.570786 77.445694,105.312347 77.445694,129.160828 
	C89.675972,128.405045 101.669632,128.278976 113.450745,126.632286 
	C118.144798,125.976189 123.044601,122.689087 126.677887,119.330818 
	C136.796478,109.978157 137.452438,99.355270 130.102005,83.742363 
M182.283722,91.118584 
	C177.050262,79.833481 171.816818,68.548378 166.223526,56.487366 
	C158.819794,72.294052 151.817581,87.243507 144.874130,102.067505 
	C142.636841,101.644249 140.932495,101.321815 139.228149,100.999382 
	C140.558334,102.542381 142.100143,103.483604 143.774200,103.965103 
	C150.945114,106.027626 158.186691,107.847198 165.342728,109.958061 
	C174.524536,112.666481 182.658112,116.770180 186.378677,126.541832 
	C186.719925,127.438042 188.252304,128.346008 189.293350,128.424026 
	C192.533890,128.666901 195.804153,128.513016 198.872406,128.513016 
	C199.067490,127.747871 199.184662,127.559959 199.133804,127.449211 
	C193.666626,115.543533 188.186844,103.643639 182.283722,91.118584 
M141.220764,109.878403 
	C138.441635,115.939346 135.662506,122.000290 132.796631,128.250381 
	C144.246979,129.106400 144.247345,129.106567 148.664307,119.527061 
	C149.490692,117.734772 150.312897,115.940559 151.180222,114.053253 
	C152.411835,114.299347 153.544647,114.525696 154.677475,114.752052 
	C154.815079,114.481743 154.952682,114.211441 155.090302,113.941132 
	C151.218552,111.312981 147.346802,108.684837 143.401855,106.007011 
	C143.184586,106.294075 142.842728,106.643433 142.623749,107.057739 
	C142.240479,107.782921 141.932678,108.547981 141.220764,109.878403 
z"/>
<path fill="#F5F6F6" opacity="1.000000" stroke="none" 
	d="
M129.855301,84.323753 
	C137.452438,99.355270 136.796478,109.978157 126.677887,119.330818 
	C123.044601,122.689087 118.144798,125.976189 113.450745,126.632286 
	C101.669632,128.278976 89.675972,128.405045 77.445694,129.160828 
	C77.445694,105.312347 77.445694,82.570786 77.445694,58.390579 
	C89.938225,59.283794 102.341309,59.698730 114.602654,61.240730 
	C121.005516,62.045963 126.167442,66.378670 129.713959,71.886459 
	C132.726120,76.564392 135.200516,81.588593 137.379227,87.106812 
	C135.757797,85.512970 134.136353,83.919136 132.091019,81.868179 
	C124.910095,74.446976 116.567436,70.956535 106.540359,70.053009 
	C100.722672,69.941719 95.363930,69.928139 89.679749,69.874908 
	C89.245415,70.222549 89.136536,70.609856 88.933182,71.457657 
	C88.901741,86.945969 88.964783,101.973793 88.986893,117.308365 
	C89.296379,117.733780 89.646797,117.852455 90.453918,118.064896 
	C95.273407,118.066658 99.636192,117.974648 104.350975,117.947586 
	C105.831215,117.744469 106.959450,117.476402 108.415192,117.242645 
	C109.161430,117.152840 109.580162,117.028717 110.290237,116.945450 
	C111.062820,116.678452 111.544067,116.370598 112.380974,116.057167 
	C118.574730,113.143349 122.102348,108.524681 123.320213,101.845352 
	C123.624184,101.099815 123.717239,100.548920 123.927048,99.617538 
	C124.097321,98.183624 124.150856,97.130180 124.397064,95.779297 
	C124.426239,93.640991 124.262749,91.800133 124.154915,89.564667 
	C123.487953,80.362427 117.721031,76.284523 110.439835,73.997200 
	C119.500870,73.194870 124.717003,78.687965 129.855301,84.323753 
z"/>
<path fill="#F9F9F9" opacity="1.000000" stroke="none" 
	d="
M182.495758,91.430992 
	C188.186844,103.643639 193.666626,115.543533 199.133804,127.449211 
	C199.184662,127.559959 199.067490,127.747871 198.872406,128.513016 
	C195.804153,128.513016 192.533890,128.666901 189.293350,128.424026 
	C188.252304,128.346008 186.719925,127.438042 186.378677,126.541832 
	C182.658112,116.770180 174.524536,112.666481 165.342728,109.958061 
	C158.186691,107.847198 150.945114,106.027626 143.774200,103.965103 
	C142.100143,103.483604 140.558334,102.542381 139.228149,100.999382 
	C140.932495,101.321815 142.636841,101.644249 144.874130,102.067505 
	C151.817581,87.243507 158.819794,72.294052 166.223526,56.487366 
	C171.816818,68.548378 177.050262,79.833481 182.495758,91.430992 
M161.794113,90.278633 
	C160.093353,93.982643 158.392593,97.686646 156.512085,101.782158 
	C163.375259,102.088203 169.737671,102.371918 176.519882,102.674347 
	C173.194641,95.252007 169.922867,87.948959 166.415375,80.119781 
	C164.792969,83.597267 163.402969,86.576599 161.794113,90.278633 
z"/>
<path fill="#F1F1F1" opacity="1.000000" stroke="none" 
	d="
M141.407013,109.587364 
	C141.932678,108.547981 142.240479,107.782921 142.623749,107.057739 
	C142.842728,106.643433 143.184586,106.294075 143.401855,106.007011 
	C147.346802,108.684837 151.218552,111.312981 155.090302,113.941132 
	C154.952682,114.211441 154.815079,114.481743 154.677475,114.752052 
	C153.544647,114.525696 152.411835,114.299347 151.180222,114.053253 
	C150.312897,115.940559 149.490692,117.734772 148.664307,119.527061 
	C144.247345,129.106567 144.246979,129.106400 132.796631,128.250381 
	C135.662506,122.000290 138.441635,115.939346 141.407013,109.587364 
z"/>
<path fill="#0A0A0A" opacity="1.000000" stroke="none" 
	d="
M106.999306,70.150711 
	C116.567436,70.956535 124.910095,74.446976 131.782578,81.724594 
	C131.299362,82.606209 130.700684,83.174286 129.978653,84.033058 
	C124.717003,78.687965 119.500870,73.194870 110.294434,73.710480 
	C108.814064,72.352867 107.906685,71.251793 106.999306,70.150711 
z"/>
<path fill="#07080A" opacity="1.000000" stroke="none" 
	d="
M106.540359,70.053009 
	C107.906685,71.251793 108.814064,72.352867 109.866837,73.740669 
	C117.721031,76.284523 123.487953,80.362427 123.870514,89.818008 
	C123.755096,92.336227 123.979744,94.206482 124.204391,96.076744 
	C124.150856,97.130180 124.097321,98.183624 123.649017,99.665298 
	C123.205933,100.742348 123.157623,101.391174 123.109306,102.039993 
	C122.102348,108.524681 118.574730,113.143349 112.215935,115.832619 
	C111.129791,116.043976 110.564339,116.474289 109.998894,116.904602 
	C109.580162,117.028717 109.161430,117.152840 108.207588,116.960556 
	C106.447975,117.056976 105.223473,117.469803 103.998970,117.882629 
	C99.636192,117.974648 95.273407,118.066658 90.342552,117.857742 
	C89.579971,117.298615 89.331085,117.113548 89.027824,117.001610 
	C88.964783,101.973793 88.901741,86.945969 89.148697,71.329712 
	C89.640862,70.465698 89.823029,70.190132 90.005196,69.914566 
	C95.363930,69.928139 100.722672,69.941719 106.540359,70.053009 
z"/>
<path fill="#0A0A0A" opacity="1.000000" stroke="none" 
	d="
M124.397064,95.779297 
	C123.979744,94.206482 123.755096,92.336227 123.814850,90.212616 
	C124.262749,91.800133 124.426239,93.640991 124.397064,95.779297 
z"/>
<path fill="#0A0A0A" opacity="1.000000" stroke="none" 
	d="
M104.350975,117.947578 
	C105.223473,117.469803 106.447975,117.056976 107.880081,116.926239 
	C106.959450,117.476402 105.831215,117.744469 104.350975,117.947578 
z"/>
<path fill="#0A0A0A" opacity="1.000000" stroke="none" 
	d="
M123.320213,101.845352 
	C123.157623,101.391174 123.205933,100.742348 123.532272,100.045776 
	C123.717239,100.548920 123.624184,101.099815 123.320213,101.845352 
z"/>
<path fill="#0A0A0A" opacity="1.000000" stroke="none" 
	d="
M110.290237,116.945450 
	C110.564339,116.474289 111.129791,116.043976 111.860275,115.838203 
	C111.544067,116.370598 111.062820,116.678452 110.290237,116.945450 
z"/>
<path fill="#0A0A0A" opacity="1.000000" stroke="none" 
	d="
M89.679749,69.874901 
	C89.823029,70.190132 89.640862,70.465698 89.243172,70.869217 
	C89.136536,70.609856 89.245415,70.222549 89.679749,69.874901 
z"/>
<path fill="#0A0A0A" opacity="1.000000" stroke="none" 
	d="
M88.986893,117.308365 
	C89.331085,117.113548 89.579971,117.298615 89.885841,117.763969 
	C89.646797,117.852455 89.296379,117.733780 88.986893,117.308365 
z"/>
<path fill="#0C0C0E" opacity="1.000000" stroke="none" 
	d="
M161.903549,89.917282 
	C163.402969,86.576599 164.792969,83.597267 166.415375,80.119781 
	C169.922867,87.948959 173.194641,95.252007 176.519882,102.674347 
	C169.737671,102.371918 163.375259,102.088203 156.512085,101.782158 
	C158.392593,97.686646 160.093353,93.982643 161.903549,89.917282 
z"/>
</svg>